<?xml version="1.0" encoding="utf-8"?>
<!-- Generator: Adobe Illustrator 25.0.1, SVG Export Plug-In . SVG Version: 6.00 Build 0)  -->
<svg version="1.1" id="Layer_1" xmlns="http://www.w3.org/2000/svg" xmlns:xlink="http://www.w3.org/1999/xlink" x="0px" y="0px"
	 viewBox="0 0 201.1 73" style="enable-background:new 0 0 201.1 73;" xml:space="preserve">
<style type="text/css">
	.st0{enable-background:new    ;}
	.st1{fill:#D9CA28;}
	.st2{fill:#247B53;}
</style>
<g id="Group_6" transform="translate(-47 -43.866)">
	<g class="st0">
		<path d="M79.4,90.8c-1.5,8-7,13.3-15.2,13.3c-9.2,0-16.3-6.3-16.3-18.4c0-11.9,6.3-19.2,16.4-19.2c8.8,0,14.4,5.6,15.1,12.7H72
			c-1-4-4.1-6.4-7.6-6.4c-6.1,0-9,4.7-9,12.4c0,7.8,2.9,12.4,8.6,12.4c4.3,0,7-2.5,8-6.9H79.4z"/>
		<path d="M80.5,102.9V67.7h15.5c6.9,0,11.3,5,11.3,11.4c0,6.4-4.4,11-11.3,11h-8.2v12.8H80.5z M94.9,84.1c4.2,0,6-2.2,6-5.2
			c0-2.9-1.7-5.1-6-5.1h-7v10.3H94.9z"/>
		<path d="M129.6,102.9V87.1h-13.7v15.8h-7.4V67.7h7.4v13.2h13.7V67.7h7.4v35.2H129.6z"/>
		<path d="M138.8,89.2v-5.4h13.1v5.4H138.8z"/>
		<path d="M153.8,102.9V67.7h7.4v28.8h17.4v6.4H153.8z"/>
		<path d="M204.5,102.9l-2.2-7.3h-13l-2.5,7.3H179l12.6-35.2h8.5l12.4,35.2H204.5z M195.8,75.6L195.8,75.6l-4.6,14h9L195.8,75.6z"/>
		<path d="M213.8,102.9V67.7h17.3c6.9,0,10.6,3.7,10.6,9.6c0,3-1.9,5.6-4.3,6.6c3,1.1,5.4,3.5,5.4,8.5c0,6.4-4.3,10.5-13.1,10.5
			H213.8z M220.9,73.8v7.6h9.3c2.9,0,4.5-1.3,4.5-3.8c0-2.7-1.4-3.8-4.9-3.8H220.9z M230.3,96.9c3.4,0,5.4-2.2,5.4-5
			c0-3.1-2-4.5-5.3-4.5h-9.4v9.5H230.3z"/>
	</g>
	<g class="st0">
		<path d="M160.4,60.9c-0.1-0.2-0.1-0.5-0.1-0.8c-0.6,0.6-1.5,1-2.7,1c-2,0-3-1-3-2.4c0-2.6,1.7-2.8,4.1-3.2c1.2-0.2,1.5-0.4,1.5-1
			c0-0.6-0.6-0.9-1.5-0.9c-1.1,0-1.5,0.5-1.6,1.3h-2.2c0-1.8,1-3.1,3.9-3.1c2.8,0,3.8,1.3,3.8,3.5v5.6H160.4z M160.2,56.5
			c-0.2,0.2-0.6,0.4-1.5,0.5c-1.3,0.3-1.8,0.6-1.8,1.4c0,0.7,0.4,1,1.1,1c1.2,0,2.1-0.9,2.1-1.9L160.2,56.5z"/>
		<path d="M175.7,57.7c-0.3,2.1-1.9,3.4-4.1,3.4c-2.4,0-4.1-1.6-4.1-4.8s1.7-4.6,4.1-4.6c2.3,0,3.9,1.3,4,3.4h-2.4
			c-0.1-0.9-0.8-1.5-1.7-1.5c-1,0-1.8,0.6-1.8,2.6c0,1.9,0.8,2.9,1.7,2.9c0.9,0,1.6-0.5,1.7-1.5H175.7z"/>
		<path d="M180.5,60.9v-2.6h-4.6v-2l4.4-7.3h2.6v7.5h1.4v1.8h-1.4v2.6H180.5z M180.5,52.2l-2.4,4.2h2.4V52.2z"/>
		<path d="M185.8,60.9v-8.3h-2.4V51c2.1,0,2.7-0.7,2.9-2.1h1.9v12H185.8z"/>
		<path d="M198.5,54.7c-0.1-0.9-0.6-1.2-1.7-1.2c-0.9,0-1.4,0.2-1.4,0.7c0,0.5,0.5,0.7,1.4,1c1,0.3,2,0.5,2.6,0.8
			c0.9,0.4,1.5,1,1.5,2.1c0,1.8-1.3,2.9-3.9,2.9c-2.7,0-4.2-1.3-4.3-3.1h2.4c0,0.8,0.7,1.3,1.8,1.3c0.8,0,1.6-0.3,1.6-0.9
			c0-0.6-0.7-0.8-1.4-1c-1.5-0.4-2.3-0.6-3-1c-0.8-0.5-1.1-1.2-1.1-2c0-1.5,1-2.6,3.7-2.6c2.6,0,3.7,1,3.8,2.9H198.5z"/>
		<path d="M206.5,55h2.2v2.5c0,1.9-1.1,3.5-3.6,3.5c-2.6,0-3.6-1.7-3.6-3.6v-7.9h2.3V52h4.9v1.7h-4.9v3.6c0,1.1,0.4,1.8,1.3,1.8
			c0.9,0,1.4-0.6,1.4-1.7V55z"/>
		<path d="M215.3,60.9v-1.2c-0.6,1-1.5,1.5-2.8,1.5c-1.8,0-3-1.3-3-3.3V52h2.3v5.5c0,1.1,0.5,1.7,1.5,1.7c1.2,0,1.8-0.8,1.8-2V52
			h2.3v8.9H215.3z"/>
		<path d="M224.6,60.9l0-1.1c-0.6,0.9-1.4,1.3-2.5,1.3c-2.2,0-3.8-1.8-3.8-4.8c0-2.7,1.4-4.6,3.6-4.6c1.1,0,2,0.5,2.6,1.4v-4.4h2.3
			v12.1H224.6z M224.6,56.7c0-1.9-0.7-2.9-2-2.9c-1.4,0-2,0.9-2,2.7c0,1.6,0.8,2.7,2,2.7C223.7,59.2,224.6,58.1,224.6,56.7z"/>
		<path d="M227.8,50.9v-2.2h2.3v2.2H227.8z M227.8,60.9V52h2.3v8.9H227.8z"/>
		<path d="M230.9,56.4c0-2.8,1.7-4.7,4.6-4.7c2.8,0,4.5,1.8,4.5,4.7c0,2.8-1.7,4.7-4.5,4.7C232.6,61.1,230.9,59.2,230.9,56.4z
			 M237.6,56.4c0-1.8-0.7-2.7-2.1-2.7s-2.1,0.9-2.1,2.7c0,1.8,0.7,2.7,2.1,2.7S237.6,58.2,237.6,56.4z"/>
	</g>
	<path id="Path_4" class="st1" d="M47,108.1h201.1v4.4H47V108.1z"/>
	<path id="Path_3" class="st2" d="M47,112.5h201.1v4.4H47V112.5z"/>
</g>
</svg>
