<?xml version="1.0" standalone="no"?>
<!DOCTYPE svg PUBLIC "-//W3C//DTD SVG 20010904//EN"
 "http://www.w3.org/TR/2001/REC-SVG-20010904/DTD/svg10.dtd">
<svg version="1.0" xmlns="http://www.w3.org/2000/svg"
 width="640.000000pt" height="640.000000pt" viewBox="0 0 640.000000 640.000000"
 preserveAspectRatio="xMidYMid meet">
<metadata>
Created by potrace 1.11, written by Peter Selinger 2001-2013
</metadata>
<g transform="translate(0.000000,640.000000) scale(0.100000,-0.100000)"
fill="#000000" stroke="none">
<path d="M1305 6205 c-78 -23 -129 -59 -185 -131 -29 -36 -51 -120 -53 -200
l-2 -79 -415 -5 -415 -5 -55 -29 c-87 -46 -140 -108 -167 -198 -24 -82 -14
-256 19 -328 27 -58 81 -115 138 -146 19 -11 37 -22 40 -26 4 -5 5 -3609 1
-3654 -1 -5 -19 -18 -41 -28 -52 -23 -124 -105 -149 -169 -17 -44 -19 -72 -17
-177 1 -81 7 -136 16 -155 45 -96 110 -156 205 -188 42 -15 102 -17 445 -17
l396 0 2 -84 c2 -111 27 -176 92 -244 28 -29 56 -52 64 -52 8 0 16 -4 18 -9 2
-5 26 -15 53 -23 41 -12 142 -14 535 -13 469 1 487 2 531 22 138 63 200 173
201 360 l0 42 417 3 c336 2 421 6 434 17 10 7 17 10 17 7 0 -13 86 52 118 89
37 41 58 80 68 121 10 48 12 227 2 259 -5 17 -10 35 -12 41 -1 6 -17 36 -35
65 -35 55 -92 104 -135 115 -23 5 -23 7 -22 125 l1 119 1348 0 c993 0 1360 3
1395 12 91 22 162 80 210 171 l27 52 0 1365 0 1365 -24 49 c-31 62 -93 124
-156 156 l-50 25 -1376 3 -1376 2 1 115 1 116 43 24 c67 38 108 83 138 149 24
54 28 73 28 171 0 129 -6 165 -40 222 -41 71 -121 134 -188 149 -11 3 -28 7
-36 9 -8 2 -192 4 -408 4 l-393 1 1 33 c2 39 -6 134 -13 163 -19 78 -94 163
-177 202 l-55 26 -485 2 c-349 1 -497 -2 -525 -11z"/>
</g>
</svg>
